<mxfile host="www.draw.io" modified="2020-04-02T06:28:10.943Z" agent="5.0 (Macintosh; Intel Mac OS X 10_13_6) AppleWebKit/537.36 (KHTML, like Gecko) Chrome/80.0.3987.149 Safari/537.36" etag="ixWjX-ulIoQW906AdYNs" version="12.9.6" type="github">
  <diagram id="JYV548CYXWIpr-VKd4Yt" name="Page-1">
    <mxGraphModel dx="892" dy="498" grid="1" gridSize="10" guides="1" tooltips="1" connect="1" arrows="1" fold="1" page="1" pageScale="1" pageWidth="827" pageHeight="1169" math="0" shadow="0">
      <root>
        <mxCell id="0" />
        <mxCell id="1" parent="0" />
        <mxCell id="UL94JRI4lYugeWnxYpsU-2" value="DB&lt;br&gt;MySQL" style="shape=cylinder;whiteSpace=wrap;html=1;boundedLbl=1;backgroundOutline=1;" parent="1" vertex="1">
          <mxGeometry x="500" y="335" width="60" height="60" as="geometry" />
        </mxCell>
        <mxCell id="UL94JRI4lYugeWnxYpsU-19" value="&lt;font style=&quot;font-size: 18px&quot;&gt;BaseMember&lt;/font&gt;" style="rounded=1;whiteSpace=wrap;html=1;" parent="1" vertex="1">
          <mxGeometry x="330" y="265" width="120" height="60" as="geometry" />
        </mxCell>
        <mxCell id="UL94JRI4lYugeWnxYpsU-20" value="&lt;font style=&quot;font-size: 18px&quot;&gt;OpenAPI&lt;/font&gt;" style="rounded=1;whiteSpace=wrap;html=1;" parent="1" vertex="1">
          <mxGeometry x="330" y="400" width="120" height="60" as="geometry" />
        </mxCell>
        <mxCell id="UL94JRI4lYugeWnxYpsU-21" value="" style="endArrow=classic;html=1;exitX=0.25;exitY=0;exitDx=0;exitDy=0;entryX=0;entryY=0.7;entryDx=0;entryDy=0;" parent="1" source="UL94JRI4lYugeWnxYpsU-25" target="UL94JRI4lYugeWnxYpsU-2" edge="1">
          <mxGeometry width="50" height="50" relative="1" as="geometry">
            <mxPoint x="550" y="375" as="sourcePoint" />
            <mxPoint x="600" y="325" as="targetPoint" />
          </mxGeometry>
        </mxCell>
        <mxCell id="UL94JRI4lYugeWnxYpsU-22" value="" style="endArrow=classic;html=1;exitX=0.5;exitY=1;exitDx=0;exitDy=0;entryX=0;entryY=0.5;entryDx=0;entryDy=0;" parent="1" source="UL94JRI4lYugeWnxYpsU-19" target="UL94JRI4lYugeWnxYpsU-2" edge="1">
          <mxGeometry width="50" height="50" relative="1" as="geometry">
            <mxPoint x="550" y="375" as="sourcePoint" />
            <mxPoint x="600" y="325" as="targetPoint" />
          </mxGeometry>
        </mxCell>
        <mxCell id="UL94JRI4lYugeWnxYpsU-23" value="Feign" style="endArrow=classic;html=1;exitX=0.193;exitY=-0.04;exitDx=0;exitDy=0;exitPerimeter=0;entryX=0.193;entryY=1.013;entryDx=0;entryDy=0;entryPerimeter=0;" parent="1" source="UL94JRI4lYugeWnxYpsU-20" target="UL94JRI4lYugeWnxYpsU-19" edge="1">
          <mxGeometry width="50" height="50" relative="1" as="geometry">
            <mxPoint x="550" y="375" as="sourcePoint" />
            <mxPoint x="600" y="325" as="targetPoint" />
          </mxGeometry>
        </mxCell>
        <mxCell id="UL94JRI4lYugeWnxYpsU-24" value="Docker/Tomcat" style="text;html=1;strokeColor=none;fillColor=none;align=center;verticalAlign=middle;whiteSpace=wrap;rounded=0;" parent="1" vertex="1">
          <mxGeometry x="370" y="265" width="80" height="20" as="geometry" />
        </mxCell>
        <mxCell id="UL94JRI4lYugeWnxYpsU-25" value="Docker/Tomcat" style="text;html=1;strokeColor=none;fillColor=none;align=center;verticalAlign=middle;whiteSpace=wrap;rounded=0;" parent="1" vertex="1">
          <mxGeometry x="370" y="400" width="80" height="20" as="geometry" />
        </mxCell>
        <mxCell id="UL94JRI4lYugeWnxYpsU-26" value="阿里OSS" style="rounded=0;whiteSpace=wrap;html=1;" parent="1" vertex="1">
          <mxGeometry x="350" y="35" width="80" height="30" as="geometry" />
        </mxCell>
        <mxCell id="UL94JRI4lYugeWnxYpsU-27" value="外卖" style="rounded=0;whiteSpace=wrap;html=1;" parent="1" vertex="1">
          <mxGeometry x="105" y="240.47" width="90" height="40" as="geometry" />
        </mxCell>
        <mxCell id="UL94JRI4lYugeWnxYpsU-28" value="供应链" style="rounded=0;whiteSpace=wrap;html=1;" parent="1" vertex="1">
          <mxGeometry x="105" y="310.47" width="90" height="40" as="geometry" />
        </mxCell>
        <mxCell id="UL94JRI4lYugeWnxYpsU-29" value="扫码点餐&lt;br&gt;小程序" style="rounded=0;whiteSpace=wrap;html=1;" parent="1" vertex="1">
          <mxGeometry x="105" y="375.47" width="90" height="40" as="geometry" />
        </mxCell>
        <mxCell id="UL94JRI4lYugeWnxYpsU-30" value="自外卖" style="rounded=0;whiteSpace=wrap;html=1;" parent="1" vertex="1">
          <mxGeometry x="105" y="425.47" width="90" height="40" as="geometry" />
        </mxCell>
        <mxCell id="UL94JRI4lYugeWnxYpsU-31" value="" style="rounded=0;whiteSpace=wrap;html=1;" parent="1" vertex="1">
          <mxGeometry x="250" y="105" width="20" height="410" as="geometry" />
        </mxCell>
        <mxCell id="UL94JRI4lYugeWnxYpsU-32" value="网关&lt;br&gt;（认证、路由）" style="text;html=1;strokeColor=none;fillColor=none;align=center;verticalAlign=middle;whiteSpace=wrap;rounded=0;" parent="1" vertex="1">
          <mxGeometry x="215" y="75" width="90" height="20" as="geometry" />
        </mxCell>
        <mxCell id="UL94JRI4lYugeWnxYpsU-33" value="" style="endArrow=classic;html=1;exitX=1;exitY=0.5;exitDx=0;exitDy=0;entryX=0;entryY=0.5;entryDx=0;entryDy=0;" parent="1" source="UL94JRI4lYugeWnxYpsU-27" target="UL94JRI4lYugeWnxYpsU-19" edge="1">
          <mxGeometry width="50" height="50" relative="1" as="geometry">
            <mxPoint x="550" y="335" as="sourcePoint" />
            <mxPoint x="600" y="285" as="targetPoint" />
          </mxGeometry>
        </mxCell>
        <mxCell id="UL94JRI4lYugeWnxYpsU-34" value="" style="endArrow=classic;html=1;exitX=1;exitY=0.5;exitDx=0;exitDy=0;entryX=-0.007;entryY=0.653;entryDx=0;entryDy=0;entryPerimeter=0;" parent="1" source="UL94JRI4lYugeWnxYpsU-28" target="UL94JRI4lYugeWnxYpsU-19" edge="1">
          <mxGeometry width="50" height="50" relative="1" as="geometry">
            <mxPoint x="550" y="335" as="sourcePoint" />
            <mxPoint x="320" y="235" as="targetPoint" />
          </mxGeometry>
        </mxCell>
        <mxCell id="UL94JRI4lYugeWnxYpsU-35" value="" style="endArrow=classic;html=1;exitX=1;exitY=0.5;exitDx=0;exitDy=0;entryX=0;entryY=0.25;entryDx=0;entryDy=0;" parent="1" source="UL94JRI4lYugeWnxYpsU-29" target="UL94JRI4lYugeWnxYpsU-20" edge="1">
          <mxGeometry width="50" height="50" relative="1" as="geometry">
            <mxPoint x="550" y="335" as="sourcePoint" />
            <mxPoint x="600" y="285" as="targetPoint" />
          </mxGeometry>
        </mxCell>
        <mxCell id="UL94JRI4lYugeWnxYpsU-36" value="" style="endArrow=classic;html=1;exitX=1;exitY=0.5;exitDx=0;exitDy=0;" parent="1" source="UL94JRI4lYugeWnxYpsU-30" edge="1">
          <mxGeometry width="50" height="50" relative="1" as="geometry">
            <mxPoint x="550" y="335" as="sourcePoint" />
            <mxPoint x="328" y="430" as="targetPoint" />
          </mxGeometry>
        </mxCell>
        <mxCell id="UL94JRI4lYugeWnxYpsU-37" value="" style="endArrow=none;dashed=1;html=1;" parent="1" edge="1">
          <mxGeometry width="50" height="50" relative="1" as="geometry">
            <mxPoint x="290" y="505" as="sourcePoint" />
            <mxPoint x="290" y="105" as="targetPoint" />
          </mxGeometry>
        </mxCell>
        <mxCell id="UL94JRI4lYugeWnxYpsU-39" value="" style="endArrow=none;dashed=1;html=1;" parent="1" edge="1">
          <mxGeometry width="50" height="50" relative="1" as="geometry">
            <mxPoint x="750" y="505" as="sourcePoint" />
            <mxPoint x="750" y="105" as="targetPoint" />
          </mxGeometry>
        </mxCell>
        <mxCell id="UL94JRI4lYugeWnxYpsU-40" value="" style="endArrow=none;dashed=1;html=1;" parent="1" edge="1">
          <mxGeometry width="50" height="50" relative="1" as="geometry">
            <mxPoint x="290" y="505" as="sourcePoint" />
            <mxPoint x="750" y="505" as="targetPoint" />
          </mxGeometry>
        </mxCell>
        <mxCell id="UL94JRI4lYugeWnxYpsU-51" value="&lt;font style=&quot;font-size: 18px&quot;&gt;云BOH&lt;/font&gt;" style="rounded=1;whiteSpace=wrap;html=1;" parent="1" vertex="1">
          <mxGeometry x="330" y="145" width="120" height="60" as="geometry" />
        </mxCell>
        <mxCell id="UL94JRI4lYugeWnxYpsU-52" value="&lt;font style=&quot;font-size: 8px&quot;&gt;Docker/Tomcat&lt;/font&gt;" style="text;html=1;strokeColor=none;fillColor=none;align=center;verticalAlign=middle;whiteSpace=wrap;rounded=0;shadow=1;" parent="1" vertex="1">
          <mxGeometry x="370" y="145" width="80" height="20" as="geometry" />
        </mxCell>
        <mxCell id="UL94JRI4lYugeWnxYpsU-53" value="云BOH Web" style="rounded=0;whiteSpace=wrap;html=1;" parent="1" vertex="1">
          <mxGeometry x="105" y="180.47" width="90" height="40" as="geometry" />
        </mxCell>
        <mxCell id="UL94JRI4lYugeWnxYpsU-54" value="" style="endArrow=classic;html=1;entryX=0;entryY=0.5;entryDx=0;entryDy=0;exitX=1;exitY=0.5;exitDx=0;exitDy=0;" parent="1" source="UL94JRI4lYugeWnxYpsU-53" target="UL94JRI4lYugeWnxYpsU-51" edge="1">
          <mxGeometry width="50" height="50" relative="1" as="geometry">
            <mxPoint x="450" y="335" as="sourcePoint" />
            <mxPoint x="500" y="285" as="targetPoint" />
          </mxGeometry>
        </mxCell>
        <mxCell id="UL94JRI4lYugeWnxYpsU-55" value="DB&lt;br&gt;MySQL" style="shape=cylinder;whiteSpace=wrap;html=1;boundedLbl=1;backgroundOutline=1;" parent="1" vertex="1">
          <mxGeometry x="500" y="220" width="60" height="60" as="geometry" />
        </mxCell>
        <mxCell id="UL94JRI4lYugeWnxYpsU-56" value="" style="endArrow=classic;html=1;entryX=0;entryY=0.3;entryDx=0;entryDy=0;exitX=0.5;exitY=1;exitDx=0;exitDy=0;" parent="1" source="UL94JRI4lYugeWnxYpsU-51" target="UL94JRI4lYugeWnxYpsU-55" edge="1">
          <mxGeometry width="50" height="50" relative="1" as="geometry">
            <mxPoint x="450" y="335" as="sourcePoint" />
            <mxPoint x="500" y="285" as="targetPoint" />
          </mxGeometry>
        </mxCell>
        <mxCell id="UL94JRI4lYugeWnxYpsU-57" value="&lt;span style=&quot;font-size: 18px&quot;&gt;DishService&lt;/span&gt;" style="rounded=1;whiteSpace=wrap;html=1;" parent="1" vertex="1">
          <mxGeometry x="600" y="145" width="120" height="315" as="geometry" />
        </mxCell>
        <mxCell id="UL94JRI4lYugeWnxYpsU-58" value="&lt;font style=&quot;font-size: 8px&quot;&gt;Docker/Tomcat&lt;/font&gt;" style="text;html=1;strokeColor=none;fillColor=none;align=center;verticalAlign=middle;whiteSpace=wrap;rounded=0;shadow=1;" parent="1" vertex="1">
          <mxGeometry x="630" y="145" width="80" height="20" as="geometry" />
        </mxCell>
        <mxCell id="UL94JRI4lYugeWnxYpsU-59" value="" style="endArrow=classic;html=1;entryX=-0.01;entryY=0.108;entryDx=0;entryDy=0;entryPerimeter=0;exitX=1;exitY=0.5;exitDx=0;exitDy=0;" parent="1" source="UL94JRI4lYugeWnxYpsU-51" target="UL94JRI4lYugeWnxYpsU-57" edge="1">
          <mxGeometry width="50" height="50" relative="1" as="geometry">
            <mxPoint x="450" y="335" as="sourcePoint" />
            <mxPoint x="500" y="285" as="targetPoint" />
          </mxGeometry>
        </mxCell>
        <mxCell id="UL94JRI4lYugeWnxYpsU-60" value="" style="endArrow=classic;html=1;entryX=0.003;entryY=0.484;entryDx=0;entryDy=0;exitX=1;exitY=0.5;exitDx=0;exitDy=0;entryPerimeter=0;" parent="1" source="UL94JRI4lYugeWnxYpsU-19" target="UL94JRI4lYugeWnxYpsU-57" edge="1">
          <mxGeometry width="50" height="50" relative="1" as="geometry">
            <mxPoint x="450" y="335" as="sourcePoint" />
            <mxPoint x="500" y="285" as="targetPoint" />
          </mxGeometry>
        </mxCell>
        <mxCell id="UL94JRI4lYugeWnxYpsU-61" value="" style="endArrow=classic;html=1;entryX=-0.01;entryY=0.903;entryDx=0;entryDy=0;entryPerimeter=0;exitX=1;exitY=0.5;exitDx=0;exitDy=0;" parent="1" source="UL94JRI4lYugeWnxYpsU-20" target="UL94JRI4lYugeWnxYpsU-57" edge="1">
          <mxGeometry width="50" height="50" relative="1" as="geometry">
            <mxPoint x="450" y="335" as="sourcePoint" />
            <mxPoint x="500" y="285" as="targetPoint" />
          </mxGeometry>
        </mxCell>
        <mxCell id="UL94JRI4lYugeWnxYpsU-62" value="&lt;font style=&quot;font-size: 18px&quot;&gt;辰森云&lt;/font&gt;" style="text;html=1;strokeColor=none;fillColor=none;align=center;verticalAlign=middle;whiteSpace=wrap;rounded=0;" parent="1" vertex="1">
          <mxGeometry x="690" y="114.53" width="60" height="20" as="geometry" />
        </mxCell>
        <mxCell id="UL94JRI4lYugeWnxYpsU-72" value="" style="endArrow=none;dashed=1;html=1;" parent="1" edge="1">
          <mxGeometry width="50" height="50" relative="1" as="geometry">
            <mxPoint x="780" y="505" as="sourcePoint" />
            <mxPoint x="780" y="104.53" as="targetPoint" />
          </mxGeometry>
        </mxCell>
        <mxCell id="UL94JRI4lYugeWnxYpsU-73" value="" style="endArrow=none;dashed=1;html=1;" parent="1" edge="1">
          <mxGeometry width="50" height="50" relative="1" as="geometry">
            <mxPoint x="780" y="104.53" as="sourcePoint" />
            <mxPoint x="900" y="105" as="targetPoint" />
          </mxGeometry>
        </mxCell>
        <mxCell id="UL94JRI4lYugeWnxYpsU-74" value="" style="endArrow=none;dashed=1;html=1;" parent="1" edge="1">
          <mxGeometry width="50" height="50" relative="1" as="geometry">
            <mxPoint x="900" y="505" as="sourcePoint" />
            <mxPoint x="900" y="105" as="targetPoint" />
          </mxGeometry>
        </mxCell>
        <mxCell id="UL94JRI4lYugeWnxYpsU-75" value="" style="endArrow=none;dashed=1;html=1;" parent="1" edge="1">
          <mxGeometry width="50" height="50" relative="1" as="geometry">
            <mxPoint x="770" y="505" as="sourcePoint" />
            <mxPoint x="900" y="505" as="targetPoint" />
          </mxGeometry>
        </mxCell>
        <mxCell id="UL94JRI4lYugeWnxYpsU-76" value="&lt;font style=&quot;font-size: 18px&quot;&gt;口碑云&lt;/font&gt;" style="text;html=1;strokeColor=none;fillColor=none;align=center;verticalAlign=middle;whiteSpace=wrap;rounded=0;" parent="1" vertex="1">
          <mxGeometry x="790" y="114.53" width="60" height="20" as="geometry" />
        </mxCell>
        <mxCell id="UL94JRI4lYugeWnxYpsU-77" value="&lt;span style=&quot;font-size: 18px&quot;&gt;PaaS&lt;/span&gt;" style="rounded=1;whiteSpace=wrap;html=1;" parent="1" vertex="1">
          <mxGeometry x="810" y="145" width="60" height="315" as="geometry" />
        </mxCell>
        <mxCell id="UL94JRI4lYugeWnxYpsU-81" value="" style="endArrow=classic;html=1;entryX=0.5;entryY=1;entryDx=0;entryDy=0;" parent="1" target="UL94JRI4lYugeWnxYpsU-26" edge="1">
          <mxGeometry width="50" height="50" relative="1" as="geometry">
            <mxPoint x="390" y="145" as="sourcePoint" />
            <mxPoint x="435" y="95" as="targetPoint" />
          </mxGeometry>
        </mxCell>
        <mxCell id="UL94JRI4lYugeWnxYpsU-82" value="下发数据存储&lt;br&gt;（*.zip XML文件）" style="text;html=1;align=center;verticalAlign=middle;resizable=0;points=[];labelBackgroundColor=#ffffff;" parent="UL94JRI4lYugeWnxYpsU-81" vertex="1" connectable="0">
          <mxGeometry x="0.0857" y="-2" relative="1" as="geometry">
            <mxPoint x="-2" y="-2.4000000000000004" as="offset" />
          </mxGeometry>
        </mxCell>
        <mxCell id="UL94JRI4lYugeWnxYpsU-38" value="" style="endArrow=none;dashed=1;html=1;" parent="1" edge="1">
          <mxGeometry width="50" height="50" relative="1" as="geometry">
            <mxPoint x="290" y="105" as="sourcePoint" />
            <mxPoint x="750" y="105" as="targetPoint" />
          </mxGeometry>
        </mxCell>
        <mxCell id="UL94JRI4lYugeWnxYpsU-84" value="门店POS、HHT" style="rounded=0;whiteSpace=wrap;html=1;" parent="1" vertex="1">
          <mxGeometry x="105" y="105" width="90" height="40" as="geometry" />
        </mxCell>
        <mxCell id="UL94JRI4lYugeWnxYpsU-87" value="门店POS、HHT" style="rounded=0;whiteSpace=wrap;html=1;" parent="1" vertex="1">
          <mxGeometry x="105" y="475.47" width="90" height="40" as="geometry" />
        </mxCell>
        <mxCell id="UL94JRI4lYugeWnxYpsU-88" value="" style="endArrow=classic;html=1;exitX=1;exitY=0.5;exitDx=0;exitDy=0;entryX=-0.013;entryY=0.863;entryDx=0;entryDy=0;entryPerimeter=0;" parent="1" source="UL94JRI4lYugeWnxYpsU-87" target="UL94JRI4lYugeWnxYpsU-20" edge="1">
          <mxGeometry width="50" height="50" relative="1" as="geometry">
            <mxPoint x="520" y="365" as="sourcePoint" />
            <mxPoint x="570" y="315" as="targetPoint" />
          </mxGeometry>
        </mxCell>
        <mxCell id="UL94JRI4lYugeWnxYpsU-89" value="沽清" style="text;html=1;align=center;verticalAlign=middle;resizable=0;points=[];labelBackgroundColor=#ffffff;" parent="UL94JRI4lYugeWnxYpsU-88" vertex="1" connectable="0">
          <mxGeometry x="-0.5838" y="-3" relative="1" as="geometry">
            <mxPoint x="-5.83" y="-13.77" as="offset" />
          </mxGeometry>
        </mxCell>
        <mxCell id="UL94JRI4lYugeWnxYpsU-90" value="" style="endArrow=classic;html=1;entryX=1;entryY=0.5;entryDx=0;entryDy=0;exitX=0.003;exitY=0.331;exitDx=0;exitDy=0;exitPerimeter=0;" parent="1" source="UL94JRI4lYugeWnxYpsU-57" target="UL94JRI4lYugeWnxYpsU-55" edge="1">
          <mxGeometry width="50" height="50" relative="1" as="geometry">
            <mxPoint x="520" y="325" as="sourcePoint" />
            <mxPoint x="570" y="275" as="targetPoint" />
          </mxGeometry>
        </mxCell>
        <mxCell id="UL94JRI4lYugeWnxYpsU-91" value="" style="endArrow=classic;html=1;exitX=1.004;exitY=0.637;exitDx=0;exitDy=0;entryX=0;entryY=0.25;entryDx=0;entryDy=0;exitPerimeter=0;" parent="1" source="UL94JRI4lYugeWnxYpsU-84" target="UL94JRI4lYugeWnxYpsU-51" edge="1">
          <mxGeometry width="50" height="50" relative="1" as="geometry">
            <mxPoint x="520" y="295" as="sourcePoint" />
            <mxPoint x="570" y="245" as="targetPoint" />
          </mxGeometry>
        </mxCell>
        <mxCell id="UL94JRI4lYugeWnxYpsU-92" value="检查更新" style="text;html=1;align=center;verticalAlign=middle;resizable=0;points=[];labelBackgroundColor=#ffffff;" parent="UL94JRI4lYugeWnxYpsU-91" vertex="1" connectable="0">
          <mxGeometry x="0.4181" y="2" relative="1" as="geometry">
            <mxPoint x="-66.12" y="-24.43" as="offset" />
          </mxGeometry>
        </mxCell>
        <mxCell id="UL94JRI4lYugeWnxYpsU-93" value="" style="endArrow=classic;startArrow=classic;html=1;entryX=0;entryY=0.5;entryDx=0;entryDy=0;" parent="1" target="UL94JRI4lYugeWnxYpsU-77" edge="1">
          <mxGeometry width="50" height="50" relative="1" as="geometry">
            <mxPoint x="720" y="303" as="sourcePoint" />
            <mxPoint x="540" y="250" as="targetPoint" />
          </mxGeometry>
        </mxCell>
        <mxCell id="wgqTB2I-rhBlH_zggTSz-1" value="下载下发文件" style="text;html=1;align=center;verticalAlign=middle;resizable=0;points=[];autosize=1;" vertex="1" parent="1">
          <mxGeometry x="180" y="145" width="90" height="20" as="geometry" />
        </mxCell>
      </root>
    </mxGraphModel>
  </diagram>
</mxfile>
